<mxfile host="app.diagrams.net" modified="2023-04-08T08:21:35.367Z" agent="Mozilla/5.0 (Windows NT 10.0; Win64; x64) AppleWebKit/537.36 (KHTML, like Gecko) Chrome/111.0.0.0 Safari/537.36 Edg/111.0.1661.54" version="21.1.5" etag="zP1JheElUqX5NBaOojeG" type="github">
  <diagram name="第 1 页" id="Bpd3hIQLuu9coSUpC_A4">
    <mxGraphModel>
      <root>
        <mxCell id="0" />
        <mxCell id="1" parent="0" />
      </root>
    </mxGraphModel>
  </diagram>
</mxfile>
